<svg width="25" height="25" viewBox="0 0 25 25" fill="none" xmlns="http://www.w3.org/2000/svg">
<path fill-rule="evenodd" clip-rule="evenodd" d="M20.7676 21.8757C23.363 19.5852 25 16.2339 25 12.5C25 5.59644 19.4036 0 12.5 0C5.59644 0 0 5.59644 0 12.5C0 16.2339 1.63696 19.5852 4.23242 21.8757C6.43579 23.8203 9.33032 25 12.5 25C15.5203 25 18.2905 23.9287 20.4512 22.1455C20.5581 22.0574 20.6636 21.9675 20.7676 21.8757ZM5.25195 21.429C5.79297 21.2141 6.39771 20.9966 6.97314 20.7896L6.98047 20.7869C7.80664 20.4895 8.57153 20.2141 9 20C10 19.5 9.83325 17.6667 9 16.5C8.33325 14.8333 7.5 12.1445 7.5 11.25C7.5 10.9739 7.65259 10.7214 7.78931 10.4954C7.8999 10.3125 8 10.1467 8 10C7.96973 9.90942 7.93408 9.82446 7.896 9.73364C7.72339 9.32275 7.5 8.79053 7.5 7.06738C7.5 4.5 11.0015 3.5 12.5 3.5C13.9985 3.5 17.5 4.5 17.5 7.06738C17.5 8.79053 17.2766 9.32275 17.104 9.73364C17.0659 9.82446 17.0303 9.90942 17 10C17 10.1467 17.1001 10.3125 17.2107 10.4954C17.3474 10.7214 17.5 10.9739 17.5 11.25C17.5 12.1445 16.6667 14.8333 16 16.5C15.1667 17.6667 15 19.5 16 20C16.4285 20.2141 17.1934 20.4895 18.0195 20.7869L18.0269 20.7896C18.6023 20.9966 19.207 21.2141 19.748 21.429C22.3425 19.3203 24 16.1038 24 12.5C24 6.14868 18.8513 1 12.5 1C6.14868 1 1 6.14868 1 12.5C1 16.1038 2.65747 19.3203 5.25195 21.429Z" fill="#929292"/>
</svg>
