<svg width="20" height="19" viewBox="0 0 20 19" fill="none" xmlns="http://www.w3.org/2000/svg">
<path fill-rule="evenodd" clip-rule="evenodd" d="M5.5 9.25C5.5 8.28345 6.28345 7.5 7.25 7.5H12.75C13.7166 7.5 14.5 8.28345 14.5 9.25C14.5 10.2166 13.7166 11 12.75 11H7.25C6.28345 11 5.5 10.2166 5.5 9.25ZM7.25 8.5H12.75C13.1643 8.5 13.5 8.83569 13.5 9.25C13.5 9.66431 13.1643 10 12.75 10H7.25C6.83569 10 6.5 9.66431 6.5 9.25C6.5 8.83569 6.83569 8.5 7.25 8.5Z" fill="white"/>
<path fill-rule="evenodd" clip-rule="evenodd" d="M0.75 0C0.335693 0 0 0.335693 0 0.75V4.75C0 5.16431 0.335693 5.5 0.75 5.5H1V17.75C1 18.1643 1.33569 18.5 1.75 18.5H18.25C18.6643 18.5 19 18.1643 19 17.75V5.5H19.25C19.6643 5.5 20 5.16431 20 4.75V0.75C20 0.335693 19.6643 0 19.25 0H0.75ZM1 4.5V1H19V4.5H18.5H1.5H1ZM2 17.5V5.5H18V17.5H2Z" fill="white"/>
</svg>
