<svg width="25" height="21" viewBox="0 0 25 21" fill="none" xmlns="http://www.w3.org/2000/svg">
<path fill-rule="evenodd" clip-rule="evenodd" d="M0 0H0.5H5H20H24.5H25V0.5V4.5V8.5V12.5V16.5V20.5V21H24.5H20H5H0.5H0V20.5V16.5V12.5V8.5V4.5V0.5V0ZM1 1V4H4.5V1H1ZM5.5 1V4.5V8.5V10H19.5V8.5V4.5V1H5.5ZM20.5 1V4H24V1H20.5ZM24 5H20.5V8H24V5ZM24 9H20.5V10.5V12H24V9ZM24 13H20.5V16H24V13ZM24 17H20.5V20H24V17ZM19.5 20V16.5V12.5V11H5.5V12.5V16.5V20H19.5ZM4.5 20V17H1V20H4.5ZM1 16H4.5V13H1V16ZM1 12H4.5V10.5V9H1V12ZM1 8H4.5V5H1V8Z" fill="white"/>
</svg>
